<svg xmlns="http://www.w3.org/2000/svg" width="507.214" height="90" viewBox="0 0 507.214 90">
  <g id="logo_type" transform="translate(-10 -10)">
    <g id="layer101" transform="translate(10 30.616)">
      <path id="Path_2837" data-name="Path 2837" d="M1047.979,534.8c-1.312-4.36-2.752-9.059-3.175-10.456-2.286-7.578-5.207-17.145-5.673-18.627l-.55-1.693-.72,2.54c-1.82,6.265-9.948,32.469-10.795,34.671-.381,1.016-.635,1.1-3.006,1.1-1.905,0-2.54-.169-2.413-.55.085-.3,3.3-9.821,7.112-21.167L1035.744,500h3.048a29.907,29.907,0,0,1,3.09.085c0,.085,3.133,9.44,6.985,20.87,3.852,11.388,6.985,20.87,6.985,21.039a6.81,6.81,0,0,1-2.752.55l-2.752.212-2.371-7.959" transform="translate(-978.806 -499.873)" fill="#00ebff" fill-rule="evenodd"/>
      <path id="Path_2838" data-name="Path 2838" d="M2012.7,523.749V504.741l-2.879-.254c-1.566-.127-4.445-.254-6.35-.254H2000V500h30.9v4.657h-12.7l-.212,18.838-.211,18.838-2.54.212-2.54.212V523.749" transform="translate(-1915.757 -499.873)" fill="#00ebff" fill-rule="evenodd"/>
      <path id="Path_2839" data-name="Path 2839" d="M2890.339,542.05c.593-1.736,8.509-25.061,11.43-33.739,1.439-4.191,2.625-7.662,2.625-7.747a15.156,15.156,0,0,1,3.048,0l3.048.127,1.016,2.963c3.048,8.805,13.208,39.073,13.208,39.285a6.679,6.679,0,0,1-2.752.3h-2.751l-1.736-5.63c-.931-3.09-2.752-8.848-4.021-12.785-1.228-3.979-3.048-9.864-3.979-13.123s-1.82-6.223-1.99-6.562c-.127-.381-.931,1.82-1.82,4.868-.889,3.006-2.413,8.043-3.387,11.218-1.016,3.133-2.159,6.731-2.54,8.043-.424,1.27-1.524,4.911-2.5,8.128l-1.736,5.842H2890l.339-1.185" transform="translate(-2768.081 -500.352)" fill="#00ebff" fill-rule="evenodd"/>
      <path id="Path_2840" data-name="Path 2840" d="M10,518.209V497l7.916.212c6.562.169,8.34.339,10.329,1.058C36.8,501.36,40.988,508.9,40.31,520.029c-.593,9.864-4.868,16.129-12.658,18.627-1.99.635-3.81.8-10.033.8H10V518.209m5.08,0V501.233l4.53.212c3.852.169,4.953.381,7.324,1.439,4.741,2.2,6.9,5.546,7.7,12.023.889,6.858-.677,13.208-4.106,16.552-2.667,2.625-4.614,3.3-10.372,3.556l-5.08.212V518.209" transform="translate(-10 -497)" fill="#00ebff" fill-rule="evenodd"/>
    </g>
    <g id="layer102" transform="translate(177.173 10)">
      <path id="Path_2841" data-name="Path 2841" d="M3959,99.831c0-.169,5.376-20.447,11.98-45.085L3982.918,10h4.191c3.725,0,4.106.042,3.937.72-.127.423-4.318,16.171-9.356,35.052-5,18.838-9.482,35.6-9.948,37.253-.423,1.609-1.482,5.419-2.286,8.467-.847,3.006-1.693,6.1-1.947,6.858l-.423,1.4-4.021.212c-2.244.085-4.064.042-4.064-.127" transform="translate(-3959 -10)" fill="#fff" fill-rule="evenodd"/>
      <path id="Path_2842" data-name="Path 2842" d="M6957.074,508.628a28.724,28.724,0,0,1-8.89-4.614c-8.509-7.662-9.144-24.6-1.27-33.1a17.791,17.791,0,0,1,11.557-6.1,18.843,18.843,0,0,1,19.346,10.414c1.863,3.725,2.456,6.392,2.456,11.557,0,10.16-4.657,17.7-12.827,20.743-2.5.931-8.255,1.524-10.372,1.1m0-7.535c-4.953-2.413-7.578-8.213-7.2-15.706.3-5.038,1.482-8.213,4.149-10.88,5.122-5.122,13.039-3.3,16.213,3.768,3.471,7.789,1.566,18.2-3.979,21.886-2.075,1.312-7.282,1.863-9.187.931" transform="translate(-6815.131 -445.382)" fill="#fff" fill-rule="evenodd"/>
      <path id="Path_2843" data-name="Path 2843" d="M7964.479,274.229a15.465,15.465,0,0,1-5.292-2.879,23.514,23.514,0,0,1-1.905-3.344l-1.143-2.5-.17-13.674-.127-13.631H7950V231.9l3.091-.3,3.132-.3.255-2.54c.169-1.4.3-3.344.3-4.36a16.92,16.92,0,0,1,.254-3.09l.254-1.312h7.112v11.43H7975.4l-.128,3.26-.084,3.3-5.419.085-5.376.127v12.488c0,13.547.127,14.69,2.286,16.087.847.55,1.693.677,3.726.508a22.617,22.617,0,0,0,3.556-.55c.974-.3.932-.381,2.5,5.334.382,1.355-9.017,3.09-11.979,2.159" transform="translate(-7781.049 -211.11)" fill="#fff" fill-rule="evenodd"/>
      <path id="Path_2844" data-name="Path 2844" d="M8679.094,508.721c-10.287-2.413-16.681-12.954-15.156-25.1,1.017-8,5-13.97,11.261-16.891a18.873,18.873,0,0,1,25.23,9.186c5.842,12.361.847,27.347-10.583,31.919a24.5,24.5,0,0,1-10.752.889m-.3-7.7c-4.784-2.5-7.323-9.525-6.308-17.568,1.313-10.668,10.795-15.24,17.568-8.467,3.175,3.217,4.106,5.927,4.106,12.15,0,5.588-.8,8.34-3.345,11.3-2.879,3.387-8.3,4.572-12.022,2.582" transform="translate(-8464.549 -445.645)" fill="#fff" fill-rule="evenodd"/>
      <path id="Path_2845" data-name="Path 2845" d="M9746.394,507.175c-6.392-1.27-11.769-6.223-14.181-13.039a32.768,32.768,0,0,1-.594-14.478c2.413-9.525,8.637-15.2,17.822-16.3a19.719,19.719,0,0,1,13.463,4.233l1.185,1.058-1.989,2.54a12.578,12.578,0,0,1-2.414,2.54,5.8,5.8,0,0,1-1.607-.889c-6.477-4.614-13.759-2.582-17.146,4.741-1.144,2.5-1.228,3.048-1.228,7.789,0,5.08,0,5.122,1.609,8.382,1.354,2.752,1.947,3.514,3.895,4.784a8.329,8.329,0,0,0,5.248,1.736,11.479,11.479,0,0,0,8.764-2.709,11.872,11.872,0,0,1,2.032-1.355c.042.085.847,1.27,1.692,2.667,1.821,2.836,1.736,3.175-.846,5-3.979,2.752-11.092,4.233-15.706,3.3" transform="translate(-9486.723 -444.098)" fill="#fff" fill-rule="evenodd"/>
      <path id="Path_2846" data-name="Path 2846" d="M10624.447,508.671a19.691,19.691,0,0,1-9.4-5.546,17.828,17.828,0,0,1-4.825-8.594,34.139,34.139,0,0,1-.3-14.351c3.09-11.811,14.477-18.119,25.484-14.139,14.646,5.292,17.483,29.083,4.656,39.073-3.895,3.048-10.922,4.614-15.621,3.556m-.381-7.959c-2.582-1.355-4.529-3.937-5.631-7.451-1.143-3.768-.8-11.515.678-14.647,2.2-4.7,5.969-7.112,10.33-6.689,4.359.466,7.45,3.175,9.313,8.17,1.228,3.175,1.143,10.964-.17,14.182-1.143,2.921-3.514,5.757-5.629,6.816a10.431,10.431,0,0,1-8.891-.381" transform="translate(-10327.778 -445.595)" fill="#fff" fill-rule="evenodd"/>
      <path id="Path_2847" data-name="Path 2847" d="M11704.784,101.806a8.014,8.014,0,0,1-2.328-1.566c-2.456-2.328-2.456-2.752-2.456-32.808V40h8.044V67.008c0,21.124.085,27.135.508,27.474a4.158,4.158,0,0,0,1.82.593c1.228.127,1.271.254,1.692,3.217.381,2.455.381,3.09-.084,3.26a20.62,20.62,0,0,1-7.2.254" transform="translate(-11372.3 -38.73)" fill="#fff" fill-rule="evenodd"/>
      <path id="Path_2848" data-name="Path 2848" d="M4921.39,422.391l.127-4.064,14.181-5.292c22.691-8.424,26.67-9.991,26.67-10.329,0-.169-.3-.423-.593-.55-.338-.085-5.5-2.032-11.557-4.233-6.011-2.244-14.943-5.546-19.812-7.366l-8.89-3.3-.127-4.106A13.2,13.2,0,0,1,4921.6,379c.212,0,2.455.847,5,1.863,5.25,2.074,18.8,7.366,32.6,12.742,5.123,1.99,10.16,4.022,11.218,4.445l1.9.8.084,3.852c.127,3.641.085,3.852-.846,4.233-.508.254-3.217,1.312-6.012,2.371s-5.672,2.2-6.35,2.5c-.72.3-1.778.72-2.329.889a5.861,5.861,0,0,0-1.481.593,40.419,40.419,0,0,1-3.81,1.524,42.231,42.231,0,0,0-4.445,1.778,5.184,5.184,0,0,1-1.4.508c-.3.042-12.531,4.784-14.055,5.5-1.143.508-9.906,3.852-10.16,3.852a19.392,19.392,0,0,1-.127-4.064" transform="translate(-4880.624 -363.379)" fill="#fff" fill-rule="evenodd"/>
      <path id="Path_2849" data-name="Path 2849" d="M6330,489.886V468.931h7.07l.3,2.963.3,2.963,2.159-2.371c2.921-3.217,5.546-4.487,9.229-4.487a11.714,11.714,0,0,1,3.895.55l1.016.593-.8,3.387-.8,3.429-2.075-.381a11.28,11.28,0,0,0-3.514-.169c-2.2.423-5,2.54-6.6,5l-1.481,2.286-.338,13.843-.3,13.885-4.022.212-4.022.212V489.886" transform="translate(-6229.628 -448.611)" fill="#fff" fill-rule="evenodd"/>
    </g>
  </g>
</svg>
